<svg width="330" height="61" viewBox="0 0 330 61" fill="none" xmlns="http://www.w3.org/2000/svg">
<path d="M47.215 41.22C47.432 41.22 47.54 41.35 47.54 41.61C47.54 41.87 47.432 42 47.215 42C46.392 42 45.07 41.9567 43.25 41.87C41.43 41.7833 40.108 41.74 39.285 41.74C38.202 41.74 36.923 41.7833 35.45 41.87C33.977 41.9567 32.828 42 32.005 42C31.832 42 31.745 41.87 31.745 41.61C31.745 41.35 31.832 41.22 32.005 41.22C33.262 41.22 34.172 41.09 34.735 40.83C35.342 40.5267 35.645 40.05 35.645 39.4C35.645 38.75 35.277 37.645 34.54 36.085L29.6 26.075H13.87L10.75 33.095C10.1867 34.395 9.90498 35.565 9.90498 36.605C9.90498 38.1217 10.4467 39.27 11.53 40.05C12.6133 40.83 14.13 41.22 16.08 41.22C16.2967 41.22 16.405 41.35 16.405 41.61C16.405 41.87 16.2967 42 16.08 42C15.3 42 14.1733 41.9567 12.7 41.87C11.0533 41.7833 9.62329 41.74 8.40999 41.74C7.23999 41.74 5.87499 41.7833 4.31499 41.87C2.92829 41.9567 1.77999 42 0.869987 42C0.653287 42 0.544983 41.87 0.544983 41.61C0.544983 41.35 0.653287 41.22 0.869987 41.22C2.08329 41.22 3.10169 40.9817 3.92499 40.505C4.74829 40.0283 5.54999 39.1833 6.32999 37.97C7.10999 36.7133 8.04168 34.8717 9.12498 32.445L23.1 0.985039C23.1867 0.855039 23.3817 0.790039 23.685 0.790039C23.9883 0.790039 24.1617 0.855039 24.205 0.985039L40.13 33.095C41.647 36.215 42.903 38.36 43.9 39.53C44.94 40.6567 46.045 41.22 47.215 41.22ZM14.585 24.45H28.82L21.345 9.30504L14.585 24.45ZM68.011 37.84C68.141 37.84 68.249 37.9267 68.336 38.1C68.466 38.2733 68.466 38.4033 68.336 38.49C66.733 40.0067 65.216 41.1117 63.786 41.805C62.356 42.455 60.839 42.78 59.236 42.78C57.373 42.78 55.791 42.3467 54.491 41.48C53.234 40.57 52.606 39.075 52.606 36.995V22.305C52.606 20.875 52.368 19.9217 51.891 19.445C51.458 18.9683 50.591 18.73 49.291 18.73C49.248 18.73 49.183 18.6867 49.096 18.6C49.053 18.47 49.031 18.34 49.031 18.21C49.031 18.08 49.053 17.9717 49.096 17.885C49.183 17.755 49.248 17.69 49.291 17.69C53.364 17.5167 55.921 15.7617 56.961 12.425C57.048 12.2517 57.221 12.165 57.481 12.165C57.784 12.165 57.936 12.2517 57.936 12.425V17.56C59.973 17.5167 62.854 17.3 66.581 16.91C66.668 16.91 66.754 17.0833 66.841 17.43C66.971 17.7333 67.036 18.08 67.036 18.47C67.036 18.86 66.949 19.25 66.776 19.64C66.646 20.03 66.494 20.2033 66.321 20.16C63.894 19.5967 61.099 19.25 57.936 19.12V34.85C57.936 36.54 58.348 37.7967 59.171 38.62C60.038 39.4 61.229 39.79 62.746 39.79C64.566 39.79 66.278 39.1617 67.881 37.905L68.011 37.84ZM89.91 37.84C90.04 37.84 90.149 37.9267 90.235 38.1C90.365 38.2733 90.365 38.4033 90.235 38.49C88.632 40.0067 87.115 41.1117 85.685 41.805C84.255 42.455 82.739 42.78 81.135 42.78C79.272 42.78 77.69 42.3467 76.39 41.48C75.134 40.57 74.505 39.075 74.505 36.995V22.305C74.505 20.875 74.267 19.9217 73.79 19.445C73.357 18.9683 72.49 18.73 71.19 18.73C71.147 18.73 71.082 18.6867 70.995 18.6C70.952 18.47 70.93 18.34 70.93 18.21C70.93 18.08 70.952 17.9717 70.995 17.885C71.082 17.755 71.147 17.69 71.19 17.69C75.264 17.5167 77.82 15.7617 78.86 12.425C78.947 12.2517 79.12 12.165 79.38 12.165C79.684 12.165 79.835 12.2517 79.835 12.425V17.56C81.872 17.5167 84.754 17.3 88.48 16.91C88.567 16.91 88.654 17.0833 88.74 17.43C88.87 17.7333 88.935 18.08 88.935 18.47C88.935 18.86 88.849 19.25 88.675 19.64C88.545 20.03 88.394 20.2033 88.22 20.16C85.794 19.5967 82.999 19.25 79.835 19.12V34.85C79.835 36.54 80.247 37.7967 81.07 38.62C81.937 39.4 83.129 39.79 84.645 39.79C86.465 39.79 88.177 39.1617 89.78 37.905L89.91 37.84ZM106.285 42.845C103.685 42.845 101.388 42.2383 99.395 41.025C97.401 39.7683 95.863 38.1 94.78 36.02C93.696 33.8967 93.155 31.6 93.155 29.13C93.155 26.3133 93.848 23.93 95.235 21.98C96.665 19.9867 98.463 18.5133 100.63 17.56C102.84 16.5633 105.093 16.065 107.39 16.065C110.033 16.065 112.33 16.6933 114.28 17.95C116.273 19.2067 117.79 20.875 118.83 22.955C119.87 24.9917 120.39 27.18 120.39 29.52C120.39 32.12 119.74 34.4383 118.44 36.475C117.183 38.5117 115.471 40.0933 113.305 41.22C111.138 42.3033 108.798 42.845 106.285 42.845ZM108.235 41.545C110.141 41.545 111.593 40.7 112.59 39.01C113.63 37.32 114.15 34.85 114.15 31.6C114.15 28.6967 113.738 26.1617 112.915 23.995C112.135 21.8283 111.051 20.1817 109.665 19.055C108.321 17.9283 106.848 17.365 105.245 17.365C103.295 17.365 101.821 18.1667 100.825 19.77C99.828 21.3733 99.33 23.735 99.33 26.855C99.33 29.6717 99.698 32.2067 100.435 34.46C101.215 36.67 102.276 38.4033 103.62 39.66C105.006 40.9167 106.545 41.545 108.235 41.545ZM141.536 16.26C142.533 16.26 143.486 16.585 144.396 17.235C145.306 17.885 145.761 18.665 145.761 19.575C145.761 20.3983 145.501 21.07 144.981 21.59C144.504 22.11 143.833 22.37 142.966 22.37C142.403 22.37 141.926 22.2617 141.536 22.045C141.189 21.785 140.821 21.4383 140.431 21.005C140.041 20.615 139.694 20.3333 139.391 20.16C139.088 19.9433 138.719 19.835 138.286 19.835C137.809 19.835 137.289 20.03 136.726 20.42C136.206 20.7667 135.383 21.525 134.256 22.695V36.735C134.256 37.9483 134.429 38.88 134.776 39.53C135.123 40.1367 135.708 40.57 136.531 40.83C137.354 41.09 138.568 41.22 140.171 41.22C140.344 41.22 140.431 41.35 140.431 41.61C140.431 41.87 140.344 42 140.171 42C138.741 42 137.593 41.9783 136.726 41.935L131.591 41.87L127.821 41.935C127.214 41.9783 126.369 42 125.286 42C125.156 42 125.091 41.87 125.091 41.61C125.091 41.35 125.156 41.22 125.286 41.22C126.759 41.22 127.734 40.9167 128.211 40.31C128.688 39.7033 128.926 38.5117 128.926 36.735V24.32C128.926 22.9333 128.753 21.915 128.406 21.265C128.103 20.615 127.583 20.29 126.846 20.29C126.196 20.29 125.113 20.615 123.596 21.265H123.531C123.358 21.265 123.228 21.1567 123.141 20.94C123.054 20.7233 123.076 20.5933 123.206 20.55L131.721 16.39C131.981 16.3033 132.133 16.26 132.176 16.26C132.609 16.26 133.043 16.7367 133.476 17.69C133.909 18.6 134.169 19.8133 134.256 21.33C135.946 19.4233 137.354 18.1017 138.481 17.365C139.608 16.6283 140.626 16.26 141.536 16.26ZM179.693 41.22C179.823 41.22 179.888 41.35 179.888 41.61C179.888 41.87 179.823 42 179.693 42C178.609 42 177.764 41.9783 177.158 41.935L173.388 41.87L169.683 41.935C169.033 41.9783 168.166 42 167.083 42C166.953 42 166.888 41.87 166.888 41.61C166.888 41.35 166.953 41.22 167.083 41.22C168.556 41.22 169.531 40.9167 170.008 40.31C170.484 39.7033 170.723 38.5117 170.723 36.735V26.985C170.723 24.5583 170.268 22.7817 169.358 21.655C168.491 20.485 167.104 19.9 165.198 19.9C164.071 19.9 162.923 20.16 161.753 20.68C160.583 21.2 159.521 21.8933 158.568 22.76V36.735C158.568 38.5117 158.806 39.7033 159.283 40.31C159.759 40.9167 160.734 41.22 162.208 41.22C162.338 41.22 162.403 41.35 162.403 41.61C162.403 41.87 162.338 42 162.208 42C161.124 42 160.279 41.9783 159.673 41.935L155.903 41.87L152.133 41.935C151.526 41.9783 150.681 42 149.598 42C149.468 42 149.403 41.87 149.403 41.61C149.403 41.35 149.468 41.22 149.598 41.22C151.071 41.22 152.046 40.9167 152.523 40.31C152.999 39.7033 153.238 38.5117 153.238 36.735V24.32C153.238 22.9333 153.064 21.915 152.718 21.265C152.414 20.615 151.894 20.29 151.158 20.29C150.508 20.29 149.424 20.615 147.908 21.265H147.843C147.669 21.265 147.539 21.1567 147.453 20.94C147.366 20.7233 147.388 20.5933 147.518 20.55L156.033 16.39C156.293 16.3033 156.444 16.26 156.488 16.26C156.921 16.26 157.354 16.7583 157.788 17.755C158.264 18.7083 158.524 19.965 158.568 21.525C161.601 17.9283 164.894 16.13 168.448 16.13C170.831 16.13 172.694 16.8667 174.038 18.34C175.381 19.77 176.053 21.72 176.053 24.19V36.735C176.053 38.5117 176.291 39.7033 176.768 40.31C177.244 40.9167 178.219 41.22 179.693 41.22ZM205.591 37.905C205.678 37.905 205.764 37.9917 205.851 38.165C205.981 38.3383 206.003 38.4683 205.916 38.555C204.313 40.0283 202.709 41.1117 201.106 41.805C199.503 42.455 197.769 42.78 195.906 42.78C193.263 42.78 190.966 42.195 189.016 41.025C187.109 39.855 185.636 38.3167 184.596 36.41C183.599 34.5033 183.101 32.445 183.101 30.235C183.101 27.6783 183.729 25.3383 184.986 23.215C186.243 21.0917 187.954 19.4233 190.121 18.21C192.331 16.9533 194.779 16.325 197.466 16.325C200.066 16.325 202.081 16.9533 203.511 18.21C204.941 19.4667 205.656 21.33 205.656 23.8C205.656 25.0567 205.396 25.685 204.876 25.685L189.016 25.75C188.973 26.14 188.951 26.725 188.951 27.505C188.951 31.3183 189.818 34.3517 191.551 36.605C193.328 38.815 195.841 39.92 199.091 39.92C200.304 39.92 201.323 39.79 202.146 39.53C202.969 39.2267 204.074 38.7067 205.461 37.97L205.591 37.905ZM195.126 17.625C193.523 17.625 192.201 18.2533 191.161 19.51C190.164 20.7233 189.493 22.4133 189.146 24.58L199.546 24.385C199.459 19.8783 197.986 17.625 195.126 17.625ZM236.404 16.91C236.49 16.91 236.534 17.04 236.534 17.3C236.534 17.56 236.49 17.69 236.404 17.69C235.104 17.69 233.977 18.21 233.024 19.25C232.114 20.29 231.269 21.8717 230.489 23.995L223.014 43.82C221.454 47.98 219.959 51.2517 218.529 53.635C217.099 56.0183 215.647 57.7083 214.174 58.705C212.7 59.745 211.075 60.265 209.299 60.265C208.085 60.265 207.154 60.005 206.504 59.485C205.81 59.0083 205.464 58.2717 205.464 57.275C205.464 56.4083 205.745 55.7367 206.309 55.26C206.829 54.8267 207.479 54.61 208.259 54.61C208.779 54.61 209.212 54.675 209.559 54.805C209.949 54.9783 210.339 55.195 210.729 55.455C211.162 55.715 211.53 55.91 211.834 56.04C212.18 56.17 212.592 56.235 213.069 56.235C214.065 56.235 214.975 55.8233 215.799 55C216.665 54.22 217.554 52.8983 218.464 51.035C219.417 49.1717 220.544 46.5283 221.844 43.105L211.574 22.305C210.62 20.4417 209.862 19.2067 209.299 18.6C208.779 17.9933 208.129 17.69 207.349 17.69C207.219 17.69 207.154 17.56 207.154 17.3C207.154 17.04 207.219 16.91 207.349 16.91C208.475 16.91 209.342 16.9317 209.949 16.975L212.484 17.04L216.904 16.975C217.554 16.9317 218.442 16.91 219.569 16.91C219.699 16.91 219.764 17.04 219.764 17.3C219.764 17.56 219.699 17.69 219.569 17.69C218.399 17.69 217.532 17.7983 216.969 18.015C216.449 18.1883 216.189 18.535 216.189 19.055C216.189 19.445 216.297 19.835 216.514 20.225L224.444 36.605L228.799 23.995C229.189 22.8683 229.384 21.915 229.384 21.135C229.384 18.8383 227.932 17.69 225.029 17.69C224.942 17.69 224.899 17.56 224.899 17.3C224.899 17.04 224.942 16.91 225.029 16.91C226.199 16.91 227.087 16.9317 227.694 16.975L231.594 17.04L234.129 16.975C234.605 16.9317 235.364 16.91 236.404 16.91ZM243.143 20.29C243.143 21.6333 243.598 22.76 244.508 23.67C245.462 24.58 246.827 25.5333 248.603 26.53C250.163 27.3967 251.355 28.1117 252.178 28.675C253.045 29.2383 253.782 29.9967 254.388 30.95C255.038 31.9033 255.363 33.0517 255.363 34.395C255.363 35.8683 254.995 37.2333 254.258 38.49C253.522 39.7467 252.417 40.765 250.943 41.545C249.513 42.325 247.802 42.715 245.808 42.715C243.425 42.715 241.237 42.1083 239.243 40.895C238.983 40.635 238.853 40.375 238.853 40.115L238.723 34.135C238.723 34.005 238.832 33.94 239.048 33.94C239.308 33.8967 239.46 33.9183 239.503 34.005C240.24 36.1717 241.345 37.9483 242.818 39.335C244.335 40.7217 245.938 41.415 247.628 41.415C248.712 41.415 249.557 41.1333 250.163 40.57C250.77 40.0067 251.073 39.1617 251.073 38.035C251.073 36.3883 250.597 35.0883 249.643 34.135C248.69 33.1383 247.303 32.1633 245.483 31.21C244.01 30.43 242.862 29.78 242.038 29.26C241.215 28.6967 240.5 27.96 239.893 27.05C239.33 26.0967 239.048 24.9267 239.048 23.54C239.048 21.07 239.937 19.2283 241.713 18.015C243.533 16.8017 245.722 16.195 248.278 16.195C249.968 16.195 251.702 16.52 253.478 17.17C253.868 17.3433 254.063 17.5817 254.063 17.885C254.063 18.8817 254.042 19.6617 253.998 20.225L253.933 23.345C253.933 23.475 253.803 23.54 253.543 23.54C253.283 23.54 253.153 23.475 253.153 23.345C253.153 22.4783 252.807 21.59 252.113 20.68C251.42 19.7267 250.532 18.9467 249.448 18.34C248.365 17.7333 247.26 17.43 246.133 17.43C244.14 17.43 243.143 18.3833 243.143 20.29ZM278.563 37.84C278.693 37.84 278.801 37.9267 278.888 38.1C279.018 38.2733 279.018 38.4033 278.888 38.49C277.284 40.0067 275.768 41.1117 274.338 41.805C272.908 42.455 271.391 42.78 269.788 42.78C267.924 42.78 266.343 42.3467 265.043 41.48C263.786 40.57 263.158 39.075 263.158 36.995V22.305C263.158 20.875 262.919 19.9217 262.443 19.445C262.009 18.9683 261.143 18.73 259.843 18.73C259.799 18.73 259.734 18.6867 259.648 18.6C259.604 18.47 259.583 18.34 259.583 18.21C259.583 18.08 259.604 17.9717 259.648 17.885C259.734 17.755 259.799 17.69 259.843 17.69C263.916 17.5167 266.473 15.7617 267.513 12.425C267.599 12.2517 267.773 12.165 268.033 12.165C268.336 12.165 268.488 12.2517 268.488 12.425V17.56C270.524 17.5167 273.406 17.3 277.133 16.91C277.219 16.91 277.306 17.0833 277.393 17.43C277.523 17.7333 277.588 18.08 277.588 18.47C277.588 18.86 277.501 19.25 277.328 19.64C277.198 20.03 277.046 20.2033 276.873 20.16C274.446 19.5967 271.651 19.25 268.488 19.12V34.85C268.488 36.54 268.899 37.7967 269.723 38.62C270.589 39.4 271.781 39.79 273.298 39.79C275.118 39.79 276.829 39.1617 278.433 37.905L278.563 37.84ZM304.297 37.905C304.384 37.905 304.47 37.9917 304.557 38.165C304.687 38.3383 304.709 38.4683 304.622 38.555C303.019 40.0283 301.415 41.1117 299.812 41.805C298.209 42.455 296.475 42.78 294.612 42.78C291.969 42.78 289.672 42.195 287.722 41.025C285.815 39.855 284.342 38.3167 283.302 36.41C282.305 34.5033 281.807 32.445 281.807 30.235C281.807 27.6783 282.435 25.3383 283.692 23.215C284.949 21.0917 286.66 19.4233 288.827 18.21C291.037 16.9533 293.485 16.325 296.172 16.325C298.772 16.325 300.787 16.9533 302.217 18.21C303.647 19.4667 304.362 21.33 304.362 23.8C304.362 25.0567 304.102 25.685 303.582 25.685L287.722 25.75C287.679 26.14 287.657 26.725 287.657 27.505C287.657 31.3183 288.524 34.3517 290.257 36.605C292.034 38.815 294.547 39.92 297.797 39.92C299.01 39.92 300.029 39.79 300.852 39.53C301.675 39.2267 302.78 38.7067 304.167 37.97L304.297 37.905ZM293.832 17.625C292.229 17.625 290.907 18.2533 289.867 19.51C288.87 20.7233 288.199 22.4133 287.852 24.58L298.252 24.385C298.165 19.8783 296.692 17.625 293.832 17.625ZM325.555 16.26C326.551 16.26 327.505 16.585 328.415 17.235C329.325 17.885 329.78 18.665 329.78 19.575C329.78 20.3983 329.52 21.07 329 21.59C328.523 22.11 327.851 22.37 326.985 22.37C326.421 22.37 325.945 22.2617 325.555 22.045C325.208 21.785 324.84 21.4383 324.45 21.005C324.06 20.615 323.713 20.3333 323.41 20.16C323.106 19.9433 322.738 19.835 322.305 19.835C321.828 19.835 321.308 20.03 320.745 20.42C320.225 20.7667 319.401 21.525 318.275 22.695V36.735C318.275 37.9483 318.448 38.88 318.795 39.53C319.141 40.1367 319.726 40.57 320.55 40.83C321.373 41.09 322.586 41.22 324.19 41.22C324.363 41.22 324.45 41.35 324.45 41.61C324.45 41.87 324.363 42 324.19 42C322.76 42 321.611 41.9783 320.745 41.935L315.61 41.87L311.84 41.935C311.233 41.9783 310.388 42 309.305 42C309.175 42 309.11 41.87 309.11 41.61C309.11 41.35 309.175 41.22 309.305 41.22C310.778 41.22 311.753 40.9167 312.23 40.31C312.706 39.7033 312.945 38.5117 312.945 36.735V24.32C312.945 22.9333 312.771 21.915 312.425 21.265C312.121 20.615 311.601 20.29 310.865 20.29C310.215 20.29 309.131 20.615 307.615 21.265H307.55C307.376 21.265 307.246 21.1567 307.16 20.94C307.073 20.7233 307.095 20.5933 307.225 20.55L315.74 16.39C316 16.3033 316.151 16.26 316.195 16.26C316.628 16.26 317.061 16.7367 317.495 17.69C317.928 18.6 318.188 19.8133 318.275 21.33C319.965 19.4233 321.373 18.1017 322.5 17.365C323.626 16.6283 324.645 16.26 325.555 16.26Z" fill="white"/>
</svg>
